<svg width="40" height="40" viewBox="0 0 40 40" fill="none" xmlns="http://www.w3.org/2000/svg">
<path d="M27.1875 36.25C27.1875 36.4986 27.0887 36.7371 26.9129 36.9129C26.7371 37.0887 26.4986 37.1875 26.25 37.1875H13.75C13.5013 37.1875 13.2629 37.0887 13.0871 36.9129C12.9112 36.7371 12.8125 36.4986 12.8125 36.25C12.8125 36.0013 12.9112 35.7629 13.0871 35.5871C13.2629 35.4113 13.5013 35.3125 13.75 35.3125H26.25C26.4986 35.3125 26.7371 35.4113 26.9129 35.5871C27.0887 35.7629 27.1875 36.0013 27.1875 36.25ZM33.4375 16.25C33.4427 18.2866 32.9826 20.2975 32.0922 22.1291C31.2018 23.9608 29.9048 25.5648 28.3 26.8187C27.9558 27.0833 27.6767 27.4229 27.4839 27.8118C27.2911 28.2007 27.1897 28.6284 27.1875 29.0625V30C27.1875 30.5801 26.957 31.1365 26.5468 31.5468C26.1365 31.957 25.5801 32.1875 25 32.1875H15C14.4198 32.1875 13.8634 31.957 13.4532 31.5468C13.0429 31.1365 12.8125 30.5801 12.8125 30V29.0625C12.812 28.633 12.7132 28.2092 12.5236 27.8238C12.3341 27.4384 12.0587 27.1015 11.7187 26.8391C10.1188 25.5931 8.82327 23.9996 7.92997 22.1792C7.03667 20.3588 6.56904 18.359 6.56247 16.3312C6.52184 9.04842 12.4047 2.98749 19.6765 2.81249C21.4682 2.76935 23.2504 3.08505 24.9182 3.74101C26.586 4.39696 28.1058 5.37993 29.3881 6.63203C30.6703 7.88414 31.6891 9.3801 32.3846 11.0319C33.08 12.6836 33.438 14.4578 33.4375 16.25ZM31.5625 16.25C31.5629 14.7078 31.2548 13.181 30.6564 11.7596C30.0579 10.3383 29.1811 9.05098 28.0776 7.97357C26.9741 6.89616 25.6663 6.05038 24.231 5.48604C22.7957 4.92169 21.2621 4.65018 19.7203 4.68749C13.464 4.84374 8.40309 10.0531 8.43747 16.3156C8.44339 18.0606 8.84595 19.7813 9.61471 21.3478C10.3835 22.9143 11.4983 24.2855 12.875 25.3578C13.4403 25.7956 13.8976 26.3572 14.2118 26.9995C14.526 27.6417 14.6888 28.3475 14.6875 29.0625V30C14.6875 30.0829 14.7204 30.1624 14.779 30.221C14.8376 30.2796 14.9171 30.3125 15 30.3125H19.0625V22.889L14.3375 18.1625C14.1719 17.9848 14.0817 17.7497 14.086 17.5068C14.0903 17.264 14.1887 17.0322 14.3604 16.8605C14.5322 16.6887 14.7639 16.5903 15.0068 16.586C15.2497 16.5817 15.4847 16.6719 15.6625 16.8375L20 21.175L24.3375 16.8375C24.5152 16.6719 24.7502 16.5817 24.9931 16.586C25.236 16.5903 25.4677 16.6887 25.6395 16.8605C25.8113 17.0322 25.9096 17.264 25.9139 17.5068C25.9182 17.7497 25.8281 17.9848 25.6625 18.1625L20.9375 22.889V30.3125H25C25.0828 30.3125 25.1623 30.2796 25.2209 30.221C25.2795 30.1624 25.3125 30.0829 25.3125 30V29.0625C25.3144 28.3449 25.48 27.6372 25.7969 26.9933C26.1137 26.3494 26.5732 25.7863 27.1406 25.3469C28.5223 24.268 29.6391 22.8874 30.4055 21.3107C31.1719 19.7341 31.5676 18.003 31.5625 16.25Z" fill="#D6FF30"/>
</svg>
