<svg width="40" height="40" viewBox="0 0 40 40" fill="none" xmlns="http://www.w3.org/2000/svg">
<path d="M32.5 6.5625H7.5C6.91984 6.5625 6.36344 6.79297 5.9532 7.2032C5.54297 7.61344 5.3125 8.16984 5.3125 8.75V17.9328C5.3125 31.7203 16.9812 36.2953 19.3203 37.0719C19.761 37.2219 20.239 37.2219 20.6797 37.0719C23.0234 36.2906 34.6875 31.7203 34.6875 17.9328V8.75C34.6875 8.16984 34.457 7.61344 34.0468 7.2032C33.6366 6.79297 33.0802 6.5625 32.5 6.5625ZM32.8125 17.9359C32.8125 30.4359 22.2125 34.5906 20.0875 35.2953C20.0312 35.3171 19.9688 35.3171 19.9125 35.2953C17.7875 34.5906 7.1875 30.4359 7.1875 17.9359V8.75C7.1875 8.66712 7.22042 8.58763 7.27903 8.52903C7.33763 8.47042 7.41712 8.4375 7.5 8.4375H32.5C32.5829 8.4375 32.6624 8.47042 32.721 8.52903C32.7796 8.58763 32.8125 8.66712 32.8125 8.75V17.9359ZM26.9125 15.5922C27.0881 15.768 27.1867 16.0062 27.1867 16.2547C27.1867 16.5031 27.0881 16.7414 26.9125 16.9172L18.1625 25.6672C17.9867 25.8428 17.7484 25.9414 17.5 25.9414C17.2516 25.9414 17.0133 25.8428 16.8375 25.6672L13.0875 21.9172C12.9219 21.7395 12.8317 21.5044 12.836 21.2615C12.8403 21.0187 12.9387 20.7869 13.1105 20.6152C13.2822 20.4434 13.514 20.345 13.7568 20.3407C13.9997 20.3364 14.2348 20.4266 14.4125 20.5922L17.5 23.6734L25.5875 15.5875C25.7633 15.4119 26.0016 15.3133 26.25 15.3133C26.4984 15.3133 26.7367 15.4119 26.9125 15.5875V15.5922Z" fill="#12A588"/>
</svg>
