<svg width="40" height="40" viewBox="0 0 40 40" fill="none" xmlns="http://www.w3.org/2000/svg">
<path d="M34.6875 7.5V11.875C34.6875 12.1236 34.5887 12.3621 34.4129 12.5379C34.2371 12.7137 33.9986 12.8125 33.75 12.8125C33.5014 12.8125 33.2629 12.7137 33.0871 12.5379C32.9113 12.3621 32.8125 12.1236 32.8125 11.875V7.5C32.8125 7.41712 32.7796 7.33763 32.721 7.27903C32.6624 7.22042 32.5829 7.1875 32.5 7.1875H28.125C27.8764 7.1875 27.6379 7.08873 27.4621 6.91291C27.2863 6.7371 27.1875 6.49864 27.1875 6.25C27.1875 6.00136 27.2863 5.7629 27.4621 5.58709C27.6379 5.41127 27.8764 5.3125 28.125 5.3125H32.5C33.0802 5.3125 33.6366 5.54297 34.0468 5.9532C34.457 6.36344 34.6875 6.91984 34.6875 7.5ZM33.75 27.1875C33.5014 27.1875 33.2629 27.2863 33.0871 27.4621C32.9113 27.6379 32.8125 27.8764 32.8125 28.125V32.5C32.8125 32.5829 32.7796 32.6624 32.721 32.721C32.6624 32.7796 32.5829 32.8125 32.5 32.8125H28.125C27.8764 32.8125 27.6379 32.9113 27.4621 33.0871C27.2863 33.2629 27.1875 33.5014 27.1875 33.75C27.1875 33.9986 27.2863 34.2371 27.4621 34.4129C27.6379 34.5887 27.8764 34.6875 28.125 34.6875H32.5C33.0802 34.6875 33.6366 34.457 34.0468 34.0468C34.457 33.6366 34.6875 33.0802 34.6875 32.5V28.125C34.6875 27.8764 34.5887 27.6379 34.4129 27.4621C34.2371 27.2863 33.9986 27.1875 33.75 27.1875ZM11.875 32.8125H7.5C7.41712 32.8125 7.33763 32.7796 7.27903 32.721C7.22042 32.6624 7.1875 32.5829 7.1875 32.5V28.125C7.1875 27.8764 7.08873 27.6379 6.91291 27.4621C6.7371 27.2863 6.49864 27.1875 6.25 27.1875C6.00136 27.1875 5.7629 27.2863 5.58709 27.4621C5.41127 27.6379 5.3125 27.8764 5.3125 28.125V32.5C5.3125 33.0802 5.54297 33.6366 5.9532 34.0468C6.36344 34.457 6.91984 34.6875 7.5 34.6875H11.875C12.1236 34.6875 12.3621 34.5887 12.5379 34.4129C12.7137 34.2371 12.8125 33.9986 12.8125 33.75C12.8125 33.5014 12.7137 33.2629 12.5379 33.0871C12.3621 32.9113 12.1236 32.8125 11.875 32.8125ZM6.25 12.8125C6.49864 12.8125 6.7371 12.7137 6.91291 12.5379C7.08873 12.3621 7.1875 12.1236 7.1875 11.875V7.5C7.1875 7.41712 7.22042 7.33763 7.27903 7.27903C7.33763 7.22042 7.41712 7.1875 7.5 7.1875H11.875C12.1236 7.1875 12.3621 7.08873 12.5379 6.91291C12.7137 6.7371 12.8125 6.49864 12.8125 6.25C12.8125 6.00136 12.7137 5.7629 12.5379 5.58709C12.3621 5.41127 12.1236 5.3125 11.875 5.3125H7.5C6.91984 5.3125 6.36344 5.54297 5.9532 5.9532C5.54297 6.36344 5.3125 6.91984 5.3125 7.5V11.875C5.3125 12.1236 5.41127 12.3621 5.58709 12.5379C5.7629 12.7137 6.00136 12.8125 6.25 12.8125ZM27.5 27.1875C27.3545 27.1875 27.2109 27.1536 27.0807 27.0885C26.9506 27.0234 26.8373 26.9289 26.75 26.8125C25.9641 25.7646 24.945 24.9141 23.7734 24.3283C22.6018 23.7425 21.3099 23.4375 20 23.4375C18.6901 23.4375 17.3982 23.7425 16.2266 24.3283C15.055 24.9141 14.0359 25.7646 13.25 26.8125C13.1761 26.911 13.0836 26.994 12.9777 27.0567C12.8717 27.1194 12.7545 27.1607 12.6326 27.1781C12.5107 27.1955 12.3866 27.1887 12.2673 27.1582C12.1481 27.1276 12.036 27.0739 11.9375 27C11.839 26.9261 11.756 26.8336 11.6933 26.7276C11.6306 26.6217 11.5893 26.5045 11.5719 26.3826C11.5545 26.2607 11.5613 26.1366 11.5918 26.0173C11.6224 25.8981 11.6761 25.786 11.75 25.6875C12.9297 24.1061 14.5404 22.8985 16.3891 22.2094C15.4039 21.4547 14.6801 20.4102 14.3192 19.2229C13.9582 18.0356 13.9784 16.765 14.3769 15.5897C14.7753 14.4144 15.532 13.3935 16.5406 12.6705C17.5492 11.9474 18.759 11.5586 20 11.5586C21.241 11.5586 22.4508 11.9474 23.4594 12.6705C24.468 13.3935 25.2247 14.4144 25.6231 15.5897C26.0216 16.765 26.0418 18.0356 25.6808 19.2229C25.3199 20.4102 24.5961 21.4547 23.6109 22.2094C25.4596 22.8985 27.0703 24.1061 28.25 25.6875C28.3545 25.8268 28.4181 25.9924 28.4337 26.1658C28.4493 26.3392 28.4164 26.5135 28.3385 26.6693C28.2607 26.825 28.141 26.956 27.9929 27.0475C27.8448 27.139 27.6741 27.1875 27.5 27.1875ZM20 21.5625C20.8035 21.5625 21.5889 21.3242 22.257 20.8778C22.9251 20.4315 23.4458 19.797 23.7533 19.0547C24.0607 18.3123 24.1412 17.4955 23.9844 16.7074C23.8277 15.9194 23.4408 15.1955 22.8726 14.6274C22.3045 14.0592 21.5806 13.6723 20.7926 13.5156C20.0045 13.3588 19.1877 13.4393 18.4453 13.7467C17.703 14.0542 17.0685 14.5749 16.6222 15.243C16.1758 15.9111 15.9375 16.6965 15.9375 17.5C15.9375 18.5774 16.3655 19.6108 17.1274 20.3726C17.8892 21.1345 18.9226 21.5625 20 21.5625Z" fill="#F24F36"/>
</svg>
