<svg width="40" height="40" viewBox="0 0 40 40" fill="none" xmlns="http://www.w3.org/2000/svg">
<path d="M33.75 6.5625H20.9375V3.75C20.9375 3.50136 20.8387 3.2629 20.6629 3.08709C20.4871 2.91127 20.2486 2.8125 20 2.8125C19.7514 2.8125 19.5129 2.91127 19.3371 3.08709C19.1613 3.2629 19.0625 3.50136 19.0625 3.75V6.5625H6.25C5.66984 6.5625 5.11344 6.79297 4.7032 7.2032C4.29297 7.61344 4.0625 8.16984 4.0625 8.75V27.5C4.0625 28.0802 4.29297 28.6366 4.7032 29.0468C5.11344 29.457 5.66984 29.6875 6.25 29.6875H13.05L9.26719 34.4141C9.19024 34.5103 9.133 34.6207 9.09874 34.7391C9.06448 34.8575 9.05386 34.9814 9.0675 35.1039C9.09505 35.3512 9.21971 35.5774 9.41406 35.7328C9.60842 35.8882 9.85654 35.96 10.1039 35.9325C10.3512 35.905 10.5774 35.7803 10.7328 35.5859L15.45 29.6875H24.55L29.2672 35.5859C29.3441 35.6822 29.4393 35.7623 29.5472 35.8218C29.6551 35.8812 29.7737 35.9189 29.8961 35.9325C30.0186 35.9461 30.1425 35.9355 30.2609 35.9013C30.3793 35.867 30.4897 35.8098 30.5859 35.7328C30.6822 35.6559 30.7623 35.5607 30.8218 35.4528C30.8812 35.3449 30.9189 35.2263 30.9325 35.1039C30.9461 34.9814 30.9355 34.8575 30.9013 34.7391C30.867 34.6207 30.8098 34.5103 30.7328 34.4141L26.95 29.6875H33.75C34.3302 29.6875 34.8866 29.457 35.2968 29.0468C35.707 28.6366 35.9375 28.0802 35.9375 27.5V8.75C35.9375 8.16984 35.707 7.61344 35.2968 7.2032C34.8866 6.79297 34.3302 6.5625 33.75 6.5625ZM34.0625 27.5C34.0625 27.5829 34.0296 27.6624 33.971 27.721C33.9124 27.7796 33.8329 27.8125 33.75 27.8125H6.25C6.16712 27.8125 6.08763 27.7796 6.02903 27.721C5.97042 27.6624 5.9375 27.5829 5.9375 27.5V8.75C5.9375 8.66712 5.97042 8.58763 6.02903 8.52903C6.08763 8.47042 6.16712 8.4375 6.25 8.4375H33.75C33.8329 8.4375 33.9124 8.47042 33.971 8.52903C34.0296 8.58763 34.0625 8.66712 34.0625 8.75V27.5ZM15.9375 18.75V22.5C15.9375 22.7486 15.8387 22.9871 15.6629 23.1629C15.4871 23.3387 15.2486 23.4375 15 23.4375C14.7514 23.4375 14.5129 23.3387 14.3371 23.1629C14.1613 22.9871 14.0625 22.7486 14.0625 22.5V18.75C14.0625 18.5014 14.1613 18.2629 14.3371 18.0871C14.5129 17.9113 14.7514 17.8125 15 17.8125C15.2486 17.8125 15.4871 17.9113 15.6629 18.0871C15.8387 18.2629 15.9375 18.5014 15.9375 18.75ZM20.9375 16.25V22.5C20.9375 22.7486 20.8387 22.9871 20.6629 23.1629C20.4871 23.3387 20.2486 23.4375 20 23.4375C19.7514 23.4375 19.5129 23.3387 19.3371 23.1629C19.1613 22.9871 19.0625 22.7486 19.0625 22.5V16.25C19.0625 16.0014 19.1613 15.7629 19.3371 15.5871C19.5129 15.4113 19.7514 15.3125 20 15.3125C20.2486 15.3125 20.4871 15.4113 20.6629 15.5871C20.8387 15.7629 20.9375 16.0014 20.9375 16.25ZM25.9375 13.75V22.5C25.9375 22.7486 25.8387 22.9871 25.6629 23.1629C25.4871 23.3387 25.2486 23.4375 25 23.4375C24.7514 23.4375 24.5129 23.3387 24.3371 23.1629C24.1613 22.9871 24.0625 22.7486 24.0625 22.5V13.75C24.0625 13.5014 24.1613 13.2629 24.3371 13.0871C24.5129 12.9113 24.7514 12.8125 25 12.8125C25.2486 12.8125 25.4871 12.9113 25.6629 13.0871C25.8387 13.2629 25.9375 13.5014 25.9375 13.75Z" fill="#2A6DF4"/>
</svg>
