<svg width="40" height="40" viewBox="0 0 40 40" fill="none" xmlns="http://www.w3.org/2000/svg">
<path d="M19.9263 1.42871L36.3549 10.7144M19.9263 1.42871L3.4978 10.7144M19.9263 1.42871V38.5716M19.9263 1.42871L25.4026 10.7144M19.9263 1.42871L14.4502 10.7144M36.3549 10.7144V29.2858M36.3549 10.7144L3.4978 29.2858M36.3549 10.7144H25.4026M36.3549 10.7144L30.8787 20.0002M3.4978 10.7144L36.3549 29.2858M3.4978 10.7144V29.2858M3.4978 10.7144L8.97399 20.0002M3.4978 10.7144H14.4502M19.9263 38.5716L36.3549 29.2858M19.9263 38.5716L3.4978 29.2858M19.9263 38.5716L25.4026 29.2858M19.9263 38.5716L14.4502 29.2858M25.4026 10.7144L30.8787 20.0002M25.4026 10.7144H14.4502M14.4502 10.7144L8.97399 20.0002M36.3549 29.2858L30.8787 20.0002M36.3549 29.2858H25.4026M3.4978 29.2858H14.4502M3.4978 29.2858L8.97399 20.0002M30.8787 20.0002L25.4026 29.2858M25.4026 29.2858H14.4502M14.4502 29.2858L8.97399 20.0002" stroke="#525252" stroke-width="0.833333" stroke-linejoin="round"/>
</svg>
