<svg width="56" height="56" viewBox="0 0 56 56" fill="none" xmlns="http://www.w3.org/2000/svg">
<path d="M52.001 52.0001C44.1587 52.0001 37.5585 38.2737 37.5585 21.3411C37.5585 11.764 40.3841 4.00012 43.8695 4.00012C47.355 4.00012 50.1805 11.764 50.1805 21.3411C50.1805 38.2737 43.823 52.0001 35.9807 52.0001C28.1385 52.0001 21.5383 38.2737 21.5383 21.3411C21.5383 11.764 24.3638 4.00012 27.8493 4.00012C31.3348 4.00012 34.1602 11.764 34.1602 21.3411C34.1602 38.2737 27.8028 52.0001 19.9605 52.0001C12.1182 52.0001 5.51805 38.2737 5.51805 21.3411M5.57873 21.3411C5.57873 11.764 8.40426 4.00012 11.8897 4.00012C15.3751 4.00012 18.2007 11.764 18.2007 21.3411C18.2007 38.2737 11.8433 52.0001 4.00098 52.0001" stroke="#525252" stroke-width="1.16667" stroke-linejoin="round"/>
</svg>
