<svg width="21" height="20" viewBox="0 0 21 20" fill="" xmlns="http://www.w3.org/2000/svg">
<path d="M6.78271 4.375V1.875C6.78271 1.70924 6.84856 1.55027 6.96577 1.43306C7.08298 1.31585 7.24195 1.25 7.40771 1.25C7.57348 1.25 7.73245 1.31585 7.84966 1.43306C7.96687 1.55027 8.03271 1.70924 8.03271 1.875V4.375C8.03271 4.54076 7.96687 4.69973 7.84966 4.81694C7.73245 4.93415 7.57348 5 7.40771 5C7.24195 5 7.08298 4.93415 6.96577 4.81694C6.84856 4.69973 6.78271 4.54076 6.78271 4.375ZM9.90771 5C10.0735 5 10.2324 4.93415 10.3497 4.81694C10.4669 4.69973 10.5327 4.54076 10.5327 4.375V1.875C10.5327 1.70924 10.4669 1.55027 10.3497 1.43306C10.2324 1.31585 10.0735 1.25 9.90771 1.25C9.74195 1.25 9.58298 1.31585 9.46577 1.43306C9.34856 1.55027 9.28271 1.70924 9.28271 1.875V4.375C9.28271 4.54076 9.34856 4.69973 9.46577 4.81694C9.58298 4.93415 9.74195 5 9.90771 5ZM12.4077 5C12.5735 5 12.7324 4.93415 12.8497 4.81694C12.9669 4.69973 13.0327 4.54076 13.0327 4.375V1.875C13.0327 1.70924 12.9669 1.55027 12.8497 1.43306C12.7324 1.31585 12.5735 1.25 12.4077 1.25C12.242 1.25 12.083 1.31585 11.9658 1.43306C11.8486 1.55027 11.7827 1.70924 11.7827 1.875V4.375C11.7827 4.54076 11.8486 4.69973 11.9658 4.81694C12.083 4.93415 12.242 5 12.4077 5ZM19.9077 9.375V10C19.9075 10.795 19.6043 11.5599 19.0598 12.1392C18.5154 12.7185 17.7707 13.0685 16.9772 13.118C16.5509 14.3239 15.8251 15.4016 14.8679 16.25H16.7827C16.9485 16.25 17.1074 16.3158 17.2247 16.4331C17.3419 16.5503 17.4077 16.7092 17.4077 16.875C17.4077 17.0408 17.3419 17.1997 17.2247 17.3169C17.1074 17.4342 16.9485 17.5 16.7827 17.5H3.03271C2.86695 17.5 2.70798 17.4342 2.59077 17.3169C2.47356 17.1997 2.40771 17.0408 2.40771 16.875C2.40771 16.7092 2.47356 16.5503 2.59077 16.4331C2.70798 16.3158 2.86695 16.25 3.03271 16.25H4.9499C4.15248 15.5455 3.51357 14.6799 3.07535 13.7102C2.63714 12.7406 2.40958 11.6891 2.40771 10.625V6.875C2.40771 6.70924 2.47356 6.55027 2.59077 6.43306C2.70798 6.31585 2.86695 6.25 3.03271 6.25H16.7827C17.6115 6.25 18.4064 6.57924 18.9924 7.16529C19.5785 7.75134 19.9077 8.5462 19.9077 9.375ZM16.1577 7.5H3.65771V10.625C3.66012 11.7985 3.99176 12.9478 4.6149 13.9422C5.23805 14.9365 6.12771 15.7361 7.18271 16.25H12.6327C13.6877 15.7361 14.5774 14.9365 15.2005 13.9422C15.8237 12.9478 16.1553 11.7985 16.1577 10.625V7.5ZM18.6577 9.375C18.6576 8.98736 18.5373 8.60928 18.3135 8.29281C18.0896 7.97634 17.7732 7.73703 17.4077 7.60781V10.625C17.4072 11.0175 17.3759 11.4093 17.314 11.7969C17.7018 11.6823 18.0421 11.4454 18.2843 11.1216C18.5264 10.7978 18.6574 10.4044 18.6577 10V9.375Z" fill="#EECA00"/>
</svg>
