<svg width="40" height="40" viewBox="0 0 40 40" fill="none" xmlns="http://www.w3.org/2000/svg">
<path d="M26.0624 6.04403L19.9645 2.85706L13.8665 6.04403M26.0624 6.04403L19.9645 9.231M26.0624 6.04403V9.87716M13.8665 6.04403L19.9645 9.231M13.8665 6.04403V9.84033M19.9645 9.231V13.5652M26.0624 9.87716L29.616 8.01995L35.714 11.2069M26.0624 9.87716L23.5181 11.2069M13.8665 9.84033L16.4813 11.2069M13.8665 9.84033L10.3833 8.01995L4.2854 11.2069M19.9645 13.5652L23.5181 15.4225M19.9645 13.5652L16.4813 15.3857M16.4813 11.2069L10.3833 14.3939M16.4813 11.2069V15.3857M10.3833 14.3939V31.5974M10.3833 14.3939L4.2854 11.2069M16.4813 15.3857L13.8665 16.7522M10.3833 31.5974L4.2854 28.4105V11.2069M10.3833 31.5974L13.8665 29.777M13.8665 29.777V33.9558L19.9645 37.1427M13.8665 29.777V16.7522M35.714 11.2069V28.4105L29.616 31.5974M35.714 11.2069L29.616 14.3939M29.616 31.5974V14.3939M29.616 31.5974L26.0624 29.7402M29.616 14.3939L23.5181 11.2069M26.0624 29.7402V16.7522M26.0624 29.7402V33.9558L19.9645 37.1427M23.5181 11.2069V15.4225M23.5181 15.4225L26.0624 16.7522M26.0624 16.7522L19.9645 19.9392M19.9645 19.9392V37.1427M19.9645 19.9392L13.8665 16.7522" stroke="#525252" stroke-width="0.833333" stroke-linejoin="round"/>
</svg>
