<svg width="40" height="40" viewBox="0 0 40 40" fill="none" xmlns="http://www.w3.org/2000/svg">
<path d="M17.1603 17.161C17.1603 17.161 16.0846 10.4073 13.9158 8.23858C12.3479 6.67067 9.44542 6.31017 7.87748 7.87808C6.30957 9.446 6.67007 12.3486 8.23798 13.9165C10.4068 16.0852 17.1603 17.161 17.1603 17.161ZM17.1603 17.161C17.1603 17.161 18.0008 17.2542 18.8858 17.3118C19.471 16.6452 19.9993 15.9851 19.9993 15.9851M17.1603 17.161C17.1603 17.161 17.2553 18.0168 17.3128 18.9108C16.5018 19.6466 15.9844 19.9999 15.9844 19.9999M19.9993 15.9851C19.9993 15.9851 20.5292 16.6471 21.1153 17.3147C21.999 17.2573 22.8383 17.161 22.8383 17.161M19.9993 15.9851C19.9993 15.9851 24.0142 10.4488 24.0142 7.38175C24.0142 5.1644 22.2167 2.85706 19.9993 2.85706C17.7819 2.85706 15.9844 5.1644 15.9844 7.38175C15.9844 10.4488 19.9993 15.9851 19.9993 15.9851ZM15.9844 19.9999C16.3178 20.2605 16.8012 20.6608 17.3293 21.1344C17.276 22.2251 17.1603 22.8388 17.1603 22.8388M15.9844 19.9999C15.9844 19.9999 10.4482 15.9851 7.38115 15.9851C5.1638 15.9851 2.85645 17.7826 2.85645 19.9999C2.85645 22.2172 5.16379 24.0147 7.38115 24.0147C10.4482 24.0147 15.9844 19.9999 15.9844 19.9999ZM17.1603 22.8388C17.1603 22.8388 10.4068 23.9146 8.23798 26.0833C6.67007 27.6512 6.30957 30.5538 7.87748 32.1217C9.44542 33.6897 12.3479 33.3292 13.9158 31.7612C16.0846 29.5925 17.1603 22.8388 17.1603 22.8388ZM17.1603 22.8388C17.5825 22.7872 18.2117 22.7281 18.9246 22.6895C19.3406 23.1381 19.7176 23.5917 19.9993 24.0147M19.9993 24.0147C20.2546 23.5668 20.6103 23.1048 21.0111 22.6573C21.669 22.6772 22.3046 22.7317 22.8383 22.8388M19.9993 24.0147C19.9993 24.0147 15.9844 29.551 15.9844 32.6181C15.9844 34.8354 17.7819 37.1427 19.9993 37.1427C22.2167 37.1427 24.0142 34.8354 24.0142 32.6181C24.0142 29.551 19.9993 24.0147 19.9993 24.0147ZM22.8383 17.161C22.8383 17.161 29.5919 16.0852 31.7607 13.9165C33.3285 12.3486 33.689 9.446 32.1212 7.87808C30.5533 6.31018 27.6507 6.67068 26.0828 8.23858C23.914 10.4073 22.8383 17.161 22.8383 17.161ZM22.8383 17.161C22.7686 17.5652 22.6892 18.1631 22.6355 18.8448C23.3179 19.4471 24.0142 19.9999 24.0142 19.9999M24.0142 19.9999C23.6602 20.2498 23.1456 20.6449 22.5917 21.1232C22.6236 21.7374 22.6989 22.3304 22.8383 22.8388M24.0142 19.9999C24.0142 19.9999 29.5504 24.0147 32.6175 24.0147C34.8348 24.0147 37.1422 22.2172 37.1422 19.9999C37.1422 17.7826 34.8348 15.9851 32.6175 15.9851C29.5504 15.9851 24.0142 19.9999 24.0142 19.9999ZM22.8383 22.8388C22.8383 22.8388 23.914 29.5925 26.0828 31.7612C27.6507 33.3292 30.5533 33.6897 32.1212 32.1217C33.689 30.5538 33.3285 27.6512 31.7607 26.0833C29.5919 23.9146 22.8383 22.8388 22.8383 22.8388Z" stroke="#525252" stroke-width="0.833333" stroke-linejoin="round"/>
</svg>
