<svg width="40" height="40" viewBox="0 0 40 40" fill="none" xmlns="http://www.w3.org/2000/svg">
<path d="M20 20L10 14.2858M20 20L30 14.2858M20 20V25.7143M10 14.2858L15 11.4286M10 14.2858V20M30 14.2858L25 11.4286M30 14.2858V20M20 25.7143L15 22.8572L10 20M20 25.7143L30 20M20 8.57144L15 5.71432M20 8.57144L25 5.71432M20 8.57144V14.2858M15 5.71432L20 2.85718L25 5.71432M15 5.71432V11.4286M25 5.71432V11.4286M20 14.2858L15 11.4286M20 14.2858L25 11.4286M10 20L5 22.8572M5 22.8572V28.5714L20 37.1429M5 22.8572L10 25.7143L20 31.4286M20 37.1429L35 28.5714V22.8572M20 37.1429V31.4286M20 31.4286L25 28.5714L30 25.7143L35 22.8572M35 22.8572L30 20" stroke="#525252" stroke-width="0.833333" stroke-linejoin="round"/>
</svg>
