<?xml version="1.0" encoding="UTF-8"?>
<svg id="Layer_2" data-name="Layer 2" xmlns="http://www.w3.org/2000/svg" viewBox="0 0 64.17 34.65">
  <defs>
    <style>
      .cls-1 {
        fill: #d4d4d4;
        stroke-width: 0px;
      }
    </style>
  </defs>
  <g id="Layer_1-2" data-name="Layer 1">
    <g>
      <path class="cls-1" d="M6,0h6.43l8.03,24.17L28.56,0h6.42l5.81,34.65h-6.38l-3.71-21.88-7.36,21.88h-5.81l-7.29-21.88-3.8,21.88H0L6,0Z"/>
      <path class="cls-1" d="M60.67,6.09c-3.15,0-6.05,1.1-8.21,3.26-2.16,2.16-3.24,4.81-3.24,7.97,0,2.2.48,4.15,1.43,5.86.96,1.71,2.31,3.04,4.05,4.02,1.75.97,3.83,1.23,5.96,1.23v6.24c-5.13,0-9.56-1.6-12.83-4.85-3.27-3.25-4.9-7.42-4.9-12.5,0-3.29.74-6.21,2.23-8.77,1.49-2.56,3.62-4.61,6.39-6.17,2.77-1.55,5.91-2.37,9.11-2.37v6.09Z"/>
      <path class="cls-1" d="M64.17,17.32c0,1.92-1.56,3.47-3.48,3.47s-3.48-1.56-3.48-3.47,1.56-3.47,3.48-3.47,3.48,1.56,3.48,3.47Z"/>
    </g>
  </g>
</svg>